<?xml version="1.0" encoding="utf-8" ?>
<svg baseProfile="full" height="300mm" version="1.1" viewBox="0,0,200,300" width="200mm" xmlns="http://www.w3.org/2000/svg" xmlns:ev="http://www.w3.org/2001/xml-events" xmlns:xlink="http://www.w3.org/1999/xlink"><defs /><rect fill="#222222" height="300" width="200" x="0" y="0" /><g id="header"><text fill="#FFFFFF" style="font-size:12px; font-family:Arial; font-weight:bold;" x="10" y="20">Runs in 2020</text></g><g id="footer"><text fill="#FFFFFF" style="font-size:4px; font-family:Arial" x="10" y="280">ATHLETE</text><text fill="#FFFFFF" style="font-size:9px; font-family:Arial" x="10" y="290">Jane Doe</text><text fill="#FFFFFF" style="font-size:4px; font-family:Arial" x="120" y="280">STATISTICS</text><text fill="#FFFFFF" style="font-size:3px; font-family:Arial" x="120" y="285">Number: 81</text><text fill="#FFFFFF" style="font-size:3px; font-family:Arial" x="120" y="290">Weekly: 1.8</text><text fill="#FFFFFF" style="font-size:3px; font-family:Arial" x="141" y="285">Total: 727.0 km</text><text fill="#FFFFFF" style="font-size:3px; font-family:Arial" x="141" y="290">Avg: 9.0 km</text><text fill="#FFFFFF" style="font-size:3px; font-family:Arial" x="167" y="285">Min: 4.3 km</text><text fill="#FFFFFF" style="font-size:3px; font-family:Arial" x="167" y="290">Max: 15.0 km</text></g><g id="tracks"><g id="year2020"><text alignment-baseline="middle" fill="#FFFFFF" style="dominant-baseline: central; font-size:9.0px; font-family:Arial;" text-anchor="middle" x="100.0" y="150.0">2020</text><circle cx="100.0" cy="150.0" fill="none" r="14.0" stroke="darkgrey" stroke-opacity="0.2" stroke-width="0.3" /><circle cx="100.0" cy="150.0" fill="none" r="84.0" stroke="darkgrey" stroke-opacity="0.2" stroke-width="0.3" /><path d="M 93.76890775789546 164.43374947743092  a15.721311475409836,15.721311475409836 0 0,1 -5.2683064165258155,-3.7135132395141817" fill="none" stroke="#4dd2ff" stroke-width="0.2"><title>2020-01-10 7.1 km</title></path><path d="M 102.43819074059564 132.92180164870138  a17.25136612021857,17.25136612021857 0 0,1 5.51202026494434,1.7679476028224146" fill="none" stroke="#4dd2ff" stroke-width="0.2"><title>2020-01-18 8.1 km</title></path><path d="M 91.68659442191955 165.76777672760437  a17.825136612021844,17.825136612021844 0 0,1 -5.269516650856492,-4.2248256768595045" fill="none" stroke="#4dd2ff" stroke-width="0.2"><title>2020-01-21 7.7 km</title></path><path d="M 107.93426575616246 168.4897437133882  a20.120218579234937,20.120218579234937 0 0,1 -7.799653870582638,1.630024558549013" fill="none" stroke="#4dd2ff" stroke-width="0.2"><title>2020-02-02 8.1 km</title></path><path d="M 86.11560942697476 165.08594470819602  a20.50273224043712,20.50273224043712 0 0,1 -4.172040326456072,-5.373718779228129" fill="none" stroke="#4dd2ff" stroke-width="0.2"><title>2020-02-04 6.1 km</title></path><path d="M 115.89484130924 135.58322489846933  a21.459016393442575,21.459016393442575 0 0,1 4.72166856896332,8.462876797395634" fill="none" stroke="#4dd2ff" stroke-width="0.2"><title>2020-02-09 8.6 km</title></path><path d="M 121.78875475621294 156.0254960472497  a22.60655737704912,22.60655737704912 0 0,1 -6.828907226968346,10.923232469767967" fill="none" stroke="#4dd2ff" stroke-width="0.2"><title>2020-02-15 11.3 km</title></path><path d="M 95.67909745366032 174.13539569691636  a24.519125683060032,24.519125683060032 0 0,1 -9.095915560160364,-3.612810183419621" fill="none" stroke="#4dd2ff" stroke-width="0.2"><title>2020-02-25 7.7 km</title></path><path d="M 99.11462401885115 124.5399800532775  a25.475409836065488,25.475409836065488 0 0,1 14.018883869761103,3.630968733825898" fill="none" stroke="#4dd2ff" stroke-width="0.2"><title>2020-03-01 10.0 km</title></path><path d="M 77.99299406172258 164.63988171962163  a26.431693989070943,26.431693989070943 0 0,1 -3.3579536289012983,-7.206627164093627" fill="none" stroke="#ffff00" stroke-width="0.2"><title>2020-03-06 6.0 km</title></path><path d="M 100.83255860606081 123.00737215469319  a27.005464480874217,27.005464480874217 0 0,1 13.022377909741246,3.8121221137475163" fill="none" stroke="#ffff00" stroke-width="0.2"><title>2020-03-09 9.2 km</title></path><path d="M 108.4368271032229 176.05611819019055  a27.3879781420764,27.3879781420764 0 0,1 -8.94269266950375,1.3271877961162655" fill="none" stroke="#4dd2ff" stroke-width="0.2"><title>2020-03-11 6.5 km</title></path><path d="M 127.8863808288425 146.13457881313704  a28.153005464480763,28.153005464480763 0 0,1 -3.5606290528788525,18.03755995337542" fill="none" stroke="#4dd2ff" stroke-width="0.2"><title>2020-03-15 13.0 km</title></path><path d="M 122.36993338433786 169.21854679753758  a29.4918032786884,29.4918032786884 0 0,1 -12.214651162288199,8.469658337851344" fill="none" stroke="#4dd2ff" stroke-width="0.2"><title>2020-03-22 10.0 km</title></path><path d="M 81.2578132530941 173.75302578551475  a30.256830601092766,30.256830601092766 0 0,1 -7.065195294223478,-7.958886676135709" fill="none" stroke="#4dd2ff" stroke-width="0.2"><title>2020-03-26 7.1 km</title></path><path d="M 122.90860095815295 170.63303094286917  a30.83060109289604,30.83060109289604 0 0,1 -9.631637897798322,7.192285149553954" fill="none" stroke="#4dd2ff" stroke-width="0.2"><title>2020-03-29 7.6 km</title></path><path d="M 73.91704616180762 167.831524164593  a31.595628415300403,31.595628415300403 0 0,1 -2.94501751679586,-5.3551218798107145" fill="none" stroke="#4dd2ff" stroke-width="0.2"><title>2020-04-02 4.3 km</title></path><path d="M 74.10982714647196 169.0936946571061  a32.16939890710368,32.16939890710368 0 0,1 -5.615572086318714,-12.59305916281146" fill="none" stroke="#4dd2ff" stroke-width="0.2"><title>2020-04-05 9.0 km</title></path><path d="M 76.92547994480753 172.96069546153055  a32.55191256830586,32.55191256830586 0 0,1 -7.543314317042701,-11.907404991765299" fill="none" stroke="#4dd2ff" stroke-width="0.2"><title>2020-04-07 8.7 km</title></path><path d="M 130.78527154023482 137.76979418027605  a33.12568306010913,33.12568306010913 0 0,1 2.3305231649755873,13.039538409676865" fill="none" stroke="#4dd2ff" stroke-width="0.2"><title>2020-04-10 8.3 km</title></path><path d="M 124.53955543981337 172.81686802193553  a33.508196721311315,33.508196721311315 0 0,1 -17.244238084006664,9.887529116555852" fill="none" stroke="#4dd2ff" stroke-width="0.2"><title>2020-04-12 12.0 km</title></path><path d="M 67.28617586334806 160.22054776941727  a34.27322404371568,34.27322404371568 0 0,1 -1.1113164176048178,-15.7444732609048" fill="none" stroke="#4dd2ff" stroke-width="0.2"><title>2020-04-16 9.7 km</title></path><path d="M 125.9756426362559 172.94092730265257  a34.65573770491786,34.65573770491786 0 0,1 -13.250826893095658,9.294134666803709" fill="none" stroke="#4dd2ff" stroke-width="0.2"><title>2020-04-18 9.3 km</title></path><path d="M 70.81635590455073 169.734061039051  a35.229508196721135,35.229508196721135 0 0,1 -5.5902200785457685,-14.086351929032455" fill="none" stroke="#4dd2ff" stroke-width="0.2"><title>2020-04-21 8.4 km</title></path><path d="M 88.58722942323766 183.73373339213134  a35.61202185792332,35.61202185792332 0 0,1 -16.509002316998547,-11.629645551226243" fill="none" stroke="#4dd2ff" stroke-width="0.2"><title>2020-04-23 11.4 km</title></path><path d="M 66.86261539714172 163.5568619720936  a35.80327868852441,35.80327868852441 0 0,1 -2.6588900442929337,-14.265018899522568" fill="none" stroke="#4dd2ff" stroke-width="0.2"><title>2020-04-24 8.4 km</title></path><path d="M 135.49134206923773 155.99760163414877  a35.9945355191255,35.9945355191255 0 0,1 -3.0984695240071503,9.696613717567132" fill="none" stroke="#4dd2ff" stroke-width="0.2"><title>2020-04-25 4.7 km</title></path><path d="M 64.40691401297498 142.48854627996536  a36.37704918032768,36.37704918032768 0 0,1 6.528351280619015,-14.363895500359932" fill="none" stroke="#4dd2ff" stroke-width="0.2"><title>2020-04-27 9.2 km</title></path><path d="M 70.8236640894835 172.3608336860925  a36.75956284152986,36.75956284152986 0 0,1 -7.562301840380044,-21.12068994088279" fill="none" stroke="#4dd2ff" stroke-width="0.2"><title>2020-04-29 12.6 km</title></path><path d="M 135.03144469681087 162.90641934201915  a37.33333333333314,37.33333333333314 0 0,1 -9.66563600438103,14.486162266088092" fill="none" stroke="#4dd2ff" stroke-width="0.2"><title>2020-05-02 9.3 km</title></path><path d="M 62.333570028369294 151.93006935301273  a37.71584699453532,37.71584699453532 0 0,1 4.578852291493362,-20.03248128557231" fill="none" stroke="#4dd2ff" stroke-width="0.2"><title>2020-05-04 11.7 km</title></path><path d="M 63.72373747475987 138.35878606611382  a38.0983606557375,38.0983606557375 0 0,1 11.901906252466063,-17.639766940096273" fill="none" stroke="#4dd2ff" stroke-width="0.2"><title>2020-05-06 11.4 km</title></path><path d="M 61.533205810330415 148.9591191395215  a38.48087431693968,38.48087431693968 0 0,1 4.046436354481488,-16.164253684003082" fill="none" stroke="#4dd2ff" stroke-width="0.2"><title>2020-05-08 9.4 km</title></path><path d="M 114.64066013500309 186.2065788489938  a39.05464480874296,39.05464480874296 0 0,1 -20.14913124275434,2.4576426896864234" fill="none" stroke="#4dd2ff" stroke-width="0.2"><title>2020-05-11 11.5 km</title></path><path d="M 67.27928239170177 172.3554453865399  a39.62841530054623,39.62841530054623 0 0,1 -6.747722188261135,-18.798261211109125" fill="none" stroke="#4dd2ff" stroke-width="0.2"><title>2020-05-14 10.5 km</title></path><path d="M 139.85714993291396 153.50457352716356  a40.01092896174841,40.01092896174841 0 0,1 -4.587133655367969,15.387233907905209" fill="none" stroke="#4dd2ff" stroke-width="0.2"><title>2020-05-16 8.6 km</title></path><path d="M 59.606572757731264 149.96475007597476  a40.393442622950595,40.393442622950595 0 0,1 6.984795520752194,-22.669232748559068" fill="none" stroke="#4dd2ff" stroke-width="0.2"><title>2020-05-18 12.3 km</title></path><path d="M 134.63438800665375 171.88085276661357  a40.96721311475387,40.96721311475387 0 0,1 -10.995224167705237,11.578114392953836" fill="none" stroke="#4dd2ff" stroke-width="0.2"><title>2020-05-21 8.5 km</title></path><path d="M 141.19031080049984 144.61375686043837  a41.54098360655714,41.54098360655714 0 0,1 -1.1184600035377619,16.336133216921215" fill="none" stroke="#4dd2ff" stroke-width="0.2"><title>2020-05-24 7.9 km</title></path><path d="M 62.19993410370843 131.86895917505456  a41.92349726775932,41.92349726775932 0 0,1 9.648224946262216,-12.934268996205121" fill="none" stroke="#4dd2ff" stroke-width="0.2"><title>2020-05-26 7.8 km</title></path><path d="M 133.18931375005317 176.234862559616  a42.306010928961506,42.306010928961506 0 0,1 -14.070558722323689,11.504662701190849" fill="none" stroke="#4dd2ff" stroke-width="0.2"><title>2020-05-28 8.8 km</title></path><path d="M 97.29456281776203 192.4110643191246  a42.4972677595626,42.4972677595626 0 0,1 -14.619276105435574,-3.605496722091993" fill="none" stroke="#4dd2ff" stroke-width="0.2"><title>2020-05-29 7.6 km</title></path><path d="M 132.88939972667816 177.81010107262117  a43.07103825136587,43.07103825136587 0 0,1 -14.533640645953781,11.153734013533112" fill="none" stroke="#4dd2ff" stroke-width="0.2"><title>2020-06-01 9.7 km</title></path><path d="M 57.51430013423627 160.79657130315582  a43.836065573770234,43.836065573770234 0 0,1 -0.25251974118863846,-20.545685612455703" fill="none" stroke="#4dd2ff" stroke-width="0.2"><title>2020-06-05 10.1 km</title></path><path d="M 80.05709543722433 189.4659765767877  a44.21857923497242,44.21857923497242 0 0,1 -19.00578785417405,-18.53078829080905" fill="none" stroke="#4dd2ff" stroke-width="0.2"><title>2020-06-07 12.7 km</title></path><path d="M 55.527388466337165 153.3829441185328  a44.6010928961746,44.6010928961746 0 0,1 1.8834532931332042,-16.627606737728627" fill="none" stroke="#4dd2ff" stroke-width="0.2"><title>2020-06-09 8.2 km</title></path><path d="M 89.88726529767767 193.83215093683307  a44.98360655737678,44.98360655737678 0 0,1 -16.555049467843876,-7.605722098727824" fill="none" stroke="#4dd2ff" stroke-width="0.2"><title>2020-06-11 8.3 km</title></path><path d="M 136.275003125496 176.92382644364875  a45.17486338797787,45.17486338797787 0 0,1 -13.0927629616672,11.849257301509143" fill="none" stroke="#4dd2ff" stroke-width="0.2"><title>2020-06-12 7.7 km</title></path><path d="M 145.54948248144987 150.8480856520712  a45.557377049180054,45.557377049180054 0 0,1 -3.842290418075667,17.481800703004026" fill="none" stroke="#4dd2ff" stroke-width="0.2"><title>2020-06-14 10.0 km</title></path><path d="M 68.29899004552985 183.51311297558846  a46.13114754098333,46.13114754098333 0 0,1 -11.023126922452022,-16.113949157462315" fill="none" stroke="#4dd2ff" stroke-width="0.2"><title>2020-06-17 8.7 km</title></path><path d="M 141.12906180517746 172.13028792119994  a46.7049180327866,46.7049180327866 0 0,1 -13.9300106356905,15.83760619908208" fill="none" stroke="#4dd2ff" stroke-width="0.2"><title>2020-06-20 10.2 km</title></path><path d="M 134.17099236632703 182.95055375445511  a47.469945355190966,47.469945355190966 0 0,1 -13.311908279512734,9.69090873317571" fill="none" stroke="#4dd2ff" stroke-width="0.2"><title>2020-06-24 7.8 km</title></path><path d="M 57.936481265252205 127.18513148038966  a47.85245901639315,47.85245901639315 0 0,1 7.3238394941616,-10.094287048054568" fill="none" stroke="#4dd2ff" stroke-width="0.2"><title>2020-06-26 5.7 km</title></path><path d="M 63.46803408474736 181.4964768755997  a48.23497267759533,48.23497267759533 0 0,1 -11.698782015120493,-30.858085706193574" fill="none" stroke="#4dd2ff" stroke-width="0.2"><title>2020-06-28 15.0 km</title></path><path d="M 116.92629998752467 195.98369677105455  a48.999999999999694,48.999999999999694 0 0,1 -19.085009698332406,2.968728831610275" fill="none" stroke="#4dd2ff" stroke-width="0.2"><title>2020-07-02 8.5 km</title></path><path d="M 91.18576275214413 198.78389019453516  a49.57377049180297,49.57377049180297 0 0,1 -17.498647363720156,-6.769716107783921" fill="none" stroke="#4dd2ff" stroke-width="0.2"><title>2020-07-05 8.6 km</title></path><path d="M 93.97109078945162 199.39848376347788  a49.76502732240406,49.76502732240406 0 0,1 -12.505972014617878,-3.213896265389276" fill="none" stroke="#4dd2ff" stroke-width="0.2"><title>2020-07-06 5.7 km</title></path><path d="M 64.3374771395635 185.79763798962398  a50.53005464480842,50.53005464480842 0 0,1 -14.042695652089765,-26.704911499217378" fill="none" stroke="#4dd2ff" stroke-width="0.2"><title>2020-07-10 12.8 km</title></path><path d="M 94.60110684241401 201.01016944390648  a51.29508196721279,51.29508196721279 0 0,1 -24.260624776463416,-9.15926228596209" fill="none" stroke="#4dd2ff" stroke-width="0.2"><title>2020-07-14 11.2 km</title></path><path d="M 129.28759067507505 193.50247963520079  a52.442622950819334,52.442622950819334 0 0,1 -16.496985667519358,7.356434288540192" fill="none" stroke="#4dd2ff" stroke-width="0.2"><title>2020-07-20 7.8 km</title></path><path d="M 141.7061790207884 182.73121759343684  a53.01639344262261,53.01639344262261 0 0,1 -13.827888263219094,12.36355902314466" fill="none" stroke="#4dd2ff" stroke-width="0.2"><title>2020-07-23 7.8 km</title></path><path d="M 132.77546386912 192.88145164293792  a53.97267759562806,53.97267759562806 0 0,1 -20.007928846018448,9.559371923015815" fill="none" stroke="#ffff00" stroke-width="0.2"><title>2020-07-28 7.7 km</title></path><path d="M 151.60868518746742 132.94038600121684  a54.355191256830246,54.355191256830246 0 0,1 2.7463767136476496,17.178198536335877" fill="none" stroke="#4dd2ff" stroke-width="0.2"><title>2020-07-30 7.1 km</title></path><path d="M 121.97609662682622 200.96669955178595  a55.50273224043679,55.50273224043679 0 0,1 -22.79139436670903,4.530044278361084" fill="none" stroke="#4dd2ff" stroke-width="0.2"><title>2020-08-05 9.4 km</title></path><path d="M 107.59727731073059 205.94552626956724  a56.45901639344225,56.45901639344225 0 0,1 -24.85653354504091,-2.1892372760606253" fill="none" stroke="#4dd2ff" stroke-width="0.2"><title>2020-08-10 9.2 km</title></path><path d="M 155.45873483552677 183.29004348967788  a64.68306010928917,64.68306010928917 0 0,1 -26.101622746615693,24.34725550065499" fill="none" stroke="#4dd2ff" stroke-width="0.2"><title>2020-09-22 9.0 km</title></path><path d="M 70.8841166159493 89.68137227367914  a66.97814207650227,66.97814207650227 0 0,1 23.705468558865608,-6.440633259998789" fill="none" stroke="#4dd2ff" stroke-width="0.2"><title>2020-10-04 8.0 km</title></path><path d="M 152.33349676157414 193.61552257067095  a68.12568306010881,68.12568306010881 0 0,1 -11.38985131463397,10.833780362623376" fill="none" stroke="#4dd2ff" stroke-width="0.2"><title>2020-10-10 4.5 km</title></path><path d="M 128.58121071702038 86.47806529107012  a69.65573770491754,69.65573770491754 0 0,1 22.945156589064364,16.650245306320212" fill="none" stroke="#4dd2ff" stroke-width="0.2"><title>2020-10-18 8.8 km</title></path><path d="M 84.83100288734711 81.62414036357495  a70.03825136611972,70.03825136611972 0 0,1 14.313339737213782,-1.6571647512138779" fill="none" stroke="#4dd2ff" stroke-width="0.2"><title>2020-10-20 4.3 km</title></path><path d="M 66.92222986754724 212.38524468116168  a70.612021857923,70.612021857923 0 0,1 -16.9830151604308,-12.585893212255892" fill="none" stroke="#4dd2ff" stroke-width="0.2"><title>2020-10-23 5.9 km</title></path><path d="M 170.50121943429937 158.35476701369313  a70.99453551912518,70.99453551912518 0 0,1 -8.935708804645369,26.999327154964142" fill="none" stroke="#4dd2ff" stroke-width="0.2"><title>2020-10-25 8.6 km</title></path><path d="M 144.0782521052703 206.38377529589636  a71.56830601092845,71.56830601092845 0 0,1 -36.173023797350915,14.746596491924128" fill="none" stroke="#4dd2ff" stroke-width="0.2"><title>2020-10-28 10.5 km</title></path><path d="M 152.7935012584764 100.55349015367932  a72.33333333333282,72.33333333333282 0 0,1 16.723243875298312,29.45818182427625" fill="none" stroke="#4dd2ff" stroke-width="0.2"><title>2020-11-01 10.1 km</title></path><path d="M 112.926014077586 222.1407387774746  a73.28961748633827,73.28961748633827 0 0,1 -27.81953017188343,-0.3803652441471525" fill="none" stroke="#4dd2ff" stroke-width="0.2"><title>2020-11-06 8.1 km</title></path><path d="M 152.7079795035005 96.62858105349841  a75.01092896174809,75.01092896174809 0 0,1 17.541202676930023,27.071383458215657" fill="none" stroke="#4dd2ff" stroke-width="0.2"><title>2020-11-15 11.5 km</title></path><path d="M 168.1864603899914 116.07774824836031  a76.15846994535464,76.15846994535464 0 0,1 7.957329285409906,32.4269797744606" fill="none" stroke="#4dd2ff" stroke-width="0.2"><title>2020-11-21 9.6 km</title></path><path d="M 141.9014496190146 81.42171044118835  a80.36612021857864,80.36612021857864 0 0,1 29.394961173674663,31.490082712603318" fill="none" stroke="#4dd2ff" stroke-width="0.2"><title>2020-12-13 11.4 km</title></path><path d="M 177.03429990252528 122.77115005601381  a81.70491803278628,81.70491803278628 0 0,1 0.6936984330359095,52.4092372621217" fill="none" stroke="#4dd2ff" stroke-width="0.2"><title>2020-12-20 13.6 km</title></path><path d="M 131.43320897194263 226.86489520842696  a83.04371584699392,83.04371584699392 0 0,1 -37.430857388023206,5.961954032343748" fill="none" stroke="#4dd2ff" stroke-width="0.2"><title>2020-12-27 9.6 km</title></path><path d="M 134.3974312477214 226.0049504539835  a83.4262295081961,83.4262295081961 0 0,1 -34.0212830720867,7.4204310704912615" fill="none" stroke="#4dd2ff" stroke-width="0.2"><title>2020-12-29 8.2 km</title></path></g></g></svg>